<!--?xml version="1.0" standalone="no"?-->
              <svg id="sw-js-blob-svg" viewBox="0 0 100 100" xmlns="http://www.w3.org/2000/svg" version="1.1">
                    <defs> 
                        <linearGradient id="sw-gradient" x1="0" x2="1" y1="1" y2="0">
                            <stop id="stop1" stop-color="rgba(248, 117, 55, 1)" offset="0%"></stop>
                            <stop id="stop2" stop-color="rgba(251, 168, 31, 1)" offset="100%"></stop>
                        </linearGradient>
                    </defs>
                <path fill="url(#sw-gradient)" d="M16.6,-26.7C21.5,-22.7,25.3,-18,29.6,-12.4C33.8,-6.8,38.3,-0.3,39,6.7C39.6,13.7,36.3,21.2,31.3,27.3C26.3,33.5,19.5,38.4,12.5,38.8C5.5,39.2,-1.8,35.1,-8.9,32.2C-16,29.2,-22.9,27.6,-26.8,23.2C-30.7,18.8,-31.6,11.7,-31.1,5.4C-30.6,-1,-28.7,-6.6,-27,-13.2C-25.3,-19.7,-23.7,-27.1,-19.2,-31.3C-14.8,-35.6,-7.4,-36.7,-0.8,-35.5C5.9,-34.3,11.7,-30.8,16.6,-26.7Z" width="100%" height="100%" transform="translate(50 50)" stroke-width="0" style="transition: all 0.3s ease 0s;"></path>
              </svg>